<?xml version="1.0" encoding="utf-8"?>
<!-- Generator: Adobe Illustrator 17.1.0, SVG Export Plug-In . SVG Version: 6.00 Build 0)  -->
<!DOCTYPE svg PUBLIC "-//W3C//DTD SVG 1.1//EN" "http://www.w3.org/Graphics/SVG/1.1/DTD/svg11.dtd">
<svg version="1.1" id="Layer_1" xmlns="http://www.w3.org/2000/svg" xmlns:xlink="http://www.w3.org/1999/xlink" x="0px" y="0px"
	 viewBox="0 0 792 612" enable-background="new 0 0 792 612" xml:space="preserve">
<circle fill="#3E441D" cx="388.5" cy="309.5" r="278.5"/>
<polygon fill="#D1E0D7" stroke="#D1E0D7" stroke-miterlimit="10" points="166.3,373.8 250.9,241.4 294.8,172.7 348.4,259.8 
	453.5,96.7 595.4,331.9 627.8,373.8 "/>
<polygon fill="#FFFFFF" stroke="#FFFFFF" stroke-miterlimit="10" points="241.6,256 282.7,219 293.1,260 297.8,219 393.4,326.1 
	294.8,172.7 "/>
<polygon fill="#FFFFFF" stroke="#FFFFFF" stroke-miterlimit="10" points="372.9,221.8 432,160.4 469.6,275.8 483.1,179.7 
	529.9,223.4 453.3,93.9 "/>
<path fill="#789E91" d="M166.3,373.8h462.9c0,0-104.3,167-231.4,169.7c0,0-118.5,3.6-201.3-116.4
	C185.7,411.5,175.5,393.8,166.3,373.8z"/>
<path fill="#B4A87D" d="M213.8,449.9l87.2-57.4l33.4,37l87.1-51.4l43.8,56.9l17.6-7.7l40.6-37l40.6,33.4l20.3-9.7l7.2,10.1
	c0,0-84.7,118.6-198.2,119.3C393.4,543.5,291.3,543.4,213.8,449.9z"/>
<path fill="#789E91" d="M204.5,373.8c0,0,61.4-76.4,88.9-37.2c0,0-21.7-5-26.6,17.6c0,0-0.9,19.6,40.6,19.6s0,1.6,0,1.6l-86.6,19.4
	L204.5,373.8z"/>
<path fill="#789E91" d="M451.4,374.5c0,0,61.4-76.4,88.9-37.2c0,0-21.7-5-26.6,17.6c0,0-0.9,19.6,40.6,19.6c41.5,0,0,1.6,0,1.6
	l-86.6,19.4L451.4,374.5z"/>
<path fill="#789E91" d="M324.2,373.8c0,0,61.4-76.4,88.9-37.2c0,0-21.7-5-26.6,17.6c0,0-0.9,19.6,40.6,19.6s0,1.6,0,1.6l-86.6,19.4
	L324.2,373.8z"/>
</svg>
