<?xml version="1.0" encoding="utf-8"?>
<!-- Generator: Adobe Illustrator 17.1.0, SVG Export Plug-In . SVG Version: 6.00 Build 0)  -->
<!DOCTYPE svg PUBLIC "-//W3C//DTD SVG 1.1//EN" "http://www.w3.org/Graphics/SVG/1.1/DTD/svg11.dtd">
<svg version="1.1" id="Layer_1" xmlns="http://www.w3.org/2000/svg" xmlns:xlink="http://www.w3.org/1999/xlink" x="0px" y="0px"
	 viewBox="0 0 792 612" enable-background="new 0 0 792 612" xml:space="preserve">
<circle fill="#3E441D" cx="396" cy="306" r="278.5"/>
<polygon fill="#FFFFFF" stroke="#FFFFFF" stroke-miterlimit="10" points="173.8,370.3 258.4,238 302.3,169.2 356,256.4 461,93.2 
	602.9,328.4 635.3,370.3 "/>
<path fill="#D1E0D7" d="M608.2,320.9c-2.4-0.2-4.1-0.5-5.8-0.5c-10.4,0.2-21.1-5.5-31.1,2.1c-0.9,0.7-3.4-0.3-5-0.9
	c-12.6-4.5-22.1-12.3-26.8-25.3c-4.5-12.6-12.5-22.4-23.4-30.3c-9.9-7.2-19-15.4-28.3-23.4c-21.2-18.5-40.7-38.5-53.4-64.2
	c-2-4.2-7.3-10.7-9.3-10.2c-4.7,1.4-9.1,5.9-12.2,10.1c-2.4,3.3-3.4,8-3.9,12.2c-1.8,13.9,1.6,26.8,9.2,38.5
	c3.8,5.8,8.2,11.1,12,16.8c6.3,9.4,9.7,19.8,8.4,31c-0.5,3.8-3.9,9.9-6.8,10.4c-16.8,3.3-33.8,8.6-51.2,3.2c-3.1-1-6.5-1.2-9.8-1.2
	c-10.6,0.1-21,6.8-24.4,15.5c-3.7,9.4-1,18,8,26.5c0.7,0.6,1.1,1.6,1.6,2.3c-8.8,13.2-6.9,26.2-1,39.4c1.5,3.4,2.2,7.6,1.7,11.2
	c-1.3,11.2,0.4,21.6,8.7,29.6c4.3,4.2,5.6,8.3,5.5,14.1c-0.4,15.8,7.7,26.5,21.7,28.7c31.9,4.9,63.7,6.5,95.5-1.7
	c12.9-3.3,26.5-4.2,39.9-5.5c2.2-0.2,6.1,2.6,6.7,4.8c1.7,5.9,5.4,8.1,10.9,8.9c3.8,0.6,7.5,1.5,12.1,2.6l37.7,4.1
	c12.4-14.7,22.8-31.9,31.3-51.6c3.3-7.7,5.6-15.7,8.4-23.6c0-21.8,0-43.5,0-65.3l-27.1-9.4C608.2,320.2,608.2,320.5,608.2,320.9z"/>
<path fill="#010101" d="M575.6,330.2c0,23-2,118.7-37.6,122.8l-5.5-1.7c0,0-4,11.1,15.8,14.1L594,475c0,0,55.3-42.2,61.6-138.8
	L594,313.7c0,0-20.4-6.8-25.4,8.7c0,0,0.2,0,0.5,0.1C572.8,323.1,575.6,326.4,575.6,330.2z"/>
</svg>
