<?xml version="1.0" encoding="utf-8"?>
<!-- Generator: Adobe Illustrator 17.1.0, SVG Export Plug-In . SVG Version: 6.00 Build 0)  -->
<!DOCTYPE svg PUBLIC "-//W3C//DTD SVG 1.1//EN" "http://www.w3.org/Graphics/SVG/1.1/DTD/svg11.dtd">
<svg version="1.1" id="Layer_1" xmlns="http://www.w3.org/2000/svg" xmlns:xlink="http://www.w3.org/1999/xlink" x="0px" y="0px"
	 viewBox="0 0 792 612" enable-background="new 0 0 792 612" xml:space="preserve">
<circle fill="#3E441D" cx="396" cy="306" r="278.5"/>
<polygon fill="#BCBEC0" points="281.2,218.4 209.8,271.4 581.6,271.4 510.2,217.6 "/>
<ellipse fill="#BCBEC0" cx="395.7" cy="214.5" rx="19.3" ry="9.9"/>
<path fill="#BCBEC0" d="M379.3,215.9c0,17-13.3,30.9-29.8,30.9s-29.8-13.9-29.8-30.9c0-12.2,6.8-22.9,16.7-27.8c4-2,8.2-3.1,13-3.1
	C366,185,379.3,198.9,379.3,215.9z"/>
<polygon fill="#BCBEC0" points="297.1,220.4 335.6,188.4 350.7,217.3 329.4,248.8 "/>
<path fill="#BCBEC0" d="M413.6,217c0,17,13.3,30.9,29.8,30.9s29.8-13.9,29.8-30.9c0-12.2-6.8-22.9-16.7-27.8c-4-2-8.2-3.1-13-3.1
	C426.9,186.1,413.6,200,413.6,217z"/>
<polygon fill="#BCBEC0" points="495.7,221.3 457.2,189.6 442.2,218.4 463.7,249.6 "/>
<ellipse fill="#E6E7E8" cx="278.4" cy="336" rx="94.4" ry="91.5"/>
<ellipse fill="#E6E7E8" cx="513.6" cy="336" rx="94.4" ry="91.5"/>
<circle fill="#E6E7E8" cx="393.7" cy="298.4" r="58.6"/>
<circle fill="#FFFFFF" cx="278.4" cy="340.9" r="62.9"/>
<circle fill="#FFFFFF" cx="513.6" cy="336" r="62.9"/>
<circle fill="#58595B" cx="393.7" cy="311.4" r="21.2"/>
<path fill="#D1E0D7" d="M210.1,273.1c0,0,82.2-65.7,145.3,13.3c0,0,41.4-32.9,69.4,0c0,0,76.2-81.6,155.6-15l-70.3-53.8h-19
	l-34-28.1c0,0-31.5-14.4-42.2,19.3c0,0-21.5-13.3-36.6,1.1c0,0-7.9-35.7-43.1-21.5l-36,30.3l-17.3-1.1L210.1,273.1z"/>
<polygon fill="#808285" points="378.7,209.9 355.2,286.4 347.8,277.9 "/>
<polygon fill="#808285" points="413.6,208 424.9,286.4 431.1,280.5 "/>
<path fill="#808285" d="M231.1,340.9c0,0-4.5,52.7,47.3,47.3C278.4,388.2,236.8,376.8,231.1,340.9z"/>
<path fill="#808285" d="M472.2,340.9c0,0-4.5,52.7,47.3,47.3C519.5,388.2,477.9,376.8,472.2,340.9z"/>
<polygon fill="#808285" points="299.4,218.7 257.4,250.5 248.4,253.3 "/>
<polygon fill="#808285" points="491.2,217.6 522.4,245.6 528.3,245.6 "/>
</svg>
