<?xml version="1.0" encoding="utf-8"?>
<!-- Generator: Adobe Illustrator 17.1.0, SVG Export Plug-In . SVG Version: 6.00 Build 0)  -->
<!DOCTYPE svg PUBLIC "-//W3C//DTD SVG 1.1//EN" "http://www.w3.org/Graphics/SVG/1.1/DTD/svg11.dtd">
<svg version="1.1" id="Layer_1" xmlns="http://www.w3.org/2000/svg" xmlns:xlink="http://www.w3.org/1999/xlink" x="0px" y="0px"
	 viewBox="0 0 792 612" enable-background="new 0 0 792 612" xml:space="preserve">
<circle fill="#3E441D" cx="396" cy="306" r="278.5"/>
<rect x="251.5" y="139.1" fill="#D1E0D7" width="297.8" height="347.1"/>
<path d="M534.5,250.8h-40.2c-2.5,0-4.5-2-4.5-4.5v-19.6c0-2.6,2-4.5,4.5-4.5h40.2c2.5,0,4.5,2,4.5,4.5v19.6
	C539.1,248.5,537.1,250.8,534.5,250.8z"/>
<path fill="#FFFFFF" d="M531.7,474H260.3c-4.8,0-9.1-4-9.1-9.1V159.2c0-4.8,4-9.1,9.1-9.1h271.4c4.8,0,9.1,4,9.1,9.1V465
	C540.5,470,536.5,474,531.7,474z"/>
<line fill="none" stroke="#808285" stroke-width="1.8692" stroke-miterlimit="10" x1="299.9" y1="207.7" x2="503.4" y2="207.7"/>
<line fill="none" stroke="#808285" stroke-width="1.9198" stroke-miterlimit="10" x1="288.6" y1="235.4" x2="503.4" y2="235.4"/>
<line fill="none" stroke="#808285" stroke-width="1.9198" stroke-miterlimit="10" x1="288.6" y1="260.9" x2="503.4" y2="260.9"/>
<line fill="none" stroke="#808285" stroke-width="1.9198" stroke-miterlimit="10" x1="288.6" y1="283.6" x2="503.4" y2="283.6"/>
<line fill="none" stroke="#808285" stroke-width="1.9198" stroke-miterlimit="10" x1="288.6" y1="309.1" x2="503.4" y2="309.1"/>
<line fill="none" stroke="#808285" stroke-width="1.9198" stroke-miterlimit="10" x1="288.6" y1="338.9" x2="503.4" y2="338.9"/>
<line fill="none" stroke="#808285" stroke-width="1.9198" stroke-miterlimit="10" x1="288.6" y1="364.6" x2="503.4" y2="364.6"/>
<line fill="none" stroke="#808285" stroke-width="1.9198" stroke-miterlimit="10" x1="288.6" y1="390.7" x2="503.4" y2="390.7"/>
<line fill="none" stroke="#808285" stroke-width="1.9198" stroke-miterlimit="10" x1="288.6" y1="416.5" x2="503.4" y2="416.5"/>
<circle fill="#3E441D" cx="258.3" cy="179.1" r="5.4"/>
<path fill="#E6E7E8" stroke="#58595B" stroke-width="0.25" stroke-miterlimit="10" d="M255.5,183.3h-14.7c-1.7,0-2.8-1.4-2.8-2.8
	v-2.8c0-1.7,1.4-2.8,2.8-2.8h14.7c1.7,0,2.8,1.4,2.8,2.8v2.8C258.3,182.2,257.2,183.3,255.5,183.3z"/>
<circle fill="#3E441D" cx="258.3" cy="215" r="5.4"/>
<path fill="#E6E7E8" stroke="#58595B" stroke-width="0.25" stroke-miterlimit="10" d="M255.5,219.3h-14.7c-1.7,0-2.8-1.4-2.8-2.8
	v-2.8c0-1.7,1.4-2.8,2.8-2.8h14.7c1.7,0,2.8,1.4,2.8,2.8v2.8C258.3,218.2,257.2,219.3,255.5,219.3z"/>
<circle fill="#3E441D" cx="258.9" cy="258.1" r="5.4"/>
<path fill="#E6E7E8" stroke="#58595B" stroke-width="0.25" stroke-miterlimit="10" d="M256,262.4h-14.7c-1.7,0-2.8-1.4-2.8-2.8v-2.8
	c0-1.7,1.4-2.8,2.8-2.8H256c1.7,0,2.8,1.4,2.8,2.8v2.8C258.9,261.2,257.7,262.4,256,262.4z"/>
<circle fill="#3E441D" cx="258.9" cy="294.4" r="5.4"/>
<path fill="#E6E7E8" stroke="#58595B" stroke-width="0.25" stroke-miterlimit="10" d="M256,298.6h-14.7c-1.7,0-2.8-1.4-2.8-2.8V293
	c0-1.7,1.4-2.8,2.8-2.8H256c1.7,0,2.8,1.4,2.8,2.8v2.8C258.9,297.2,257.7,298.6,256,298.6z"/>
<circle fill="#3E441D" cx="258.9" cy="333.8" r="5.4"/>
<path fill="#E6E7E8" stroke="#58595B" stroke-width="0.25" stroke-miterlimit="10" d="M256,338h-14.7c-1.7,0-2.8-1.4-2.8-2.8v-2.8
	c0-1.7,1.4-2.8,2.8-2.8H256c1.7,0,2.8,1.4,2.8,2.8v2.8C258.9,336.6,257.7,338,256,338z"/>
<circle fill="#3E441D" cx="258.9" cy="369.8" r="5.4"/>
<path fill="#E6E7E8" stroke="#58595B" stroke-width="0.25" stroke-miterlimit="10" d="M256,374h-14.7c-1.7,0-2.8-1.4-2.8-2.8v-2.8
	c0-1.7,1.4-2.8,2.8-2.8H256c1.7,0,2.8,1.4,2.8,2.8v2.8C258.9,372.9,257.7,374,256,374z"/>
<circle fill="#3E441D" cx="258.9" cy="405.2" r="5.4"/>
<path fill="#E6E7E8" stroke="#58595B" stroke-width="0.25" stroke-miterlimit="10" d="M256,409.4h-14.7c-1.7,0-2.8-1.4-2.8-2.8v-2.8
	c0-1.7,1.4-2.8,2.8-2.8H256c1.7,0,2.8,1.4,2.8,2.8v2.8C258.9,408.3,257.7,409.4,256,409.4z"/>
<circle fill="#3E441D" cx="258.9" cy="441.1" r="5.4"/>
<path fill="#E6E7E8" stroke="#58595B" stroke-width="0.25" stroke-miterlimit="10" d="M256,445.4h-14.7c-1.7,0-2.8-1.4-2.8-2.8v-2.8
	c0-1.7,1.4-2.8,2.8-2.8H256c1.7,0,2.8,1.4,2.8,2.8v2.8C258.9,444.3,257.7,445.4,256,445.4z"/>
<line fill="none" stroke="#808285" stroke-miterlimit="10" x1="460.6" y1="174.8" x2="503.4" y2="174.8"/>
</svg>
