<?xml version="1.0" encoding="utf-8"?>
<!-- Generator: Adobe Illustrator 17.1.0, SVG Export Plug-In . SVG Version: 6.00 Build 0)  -->
<!DOCTYPE svg PUBLIC "-//W3C//DTD SVG 1.1//EN" "http://www.w3.org/Graphics/SVG/1.1/DTD/svg11.dtd">
<svg version="1.1" id="Layer_1" xmlns="http://www.w3.org/2000/svg" xmlns:xlink="http://www.w3.org/1999/xlink" x="0px" y="0px"
	 viewBox="0 0 216 216" enable-background="new 0 0 216 216" xml:space="preserve">
<circle cx="108" cy="108" r="98.3"/>
<polygon fill="#BCBEC0" points="67.5,77.1 42.3,95.8 173.5,95.8 148.3,76.8 "/>
<ellipse fill="#BCBEC0" cx="107.9" cy="75.7" rx="6.8" ry="3.5"/>
<path fill="#BCBEC0" d="M102.1,76.2c0,6-4.7,10.9-10.5,10.9s-10.5-4.9-10.5-10.9c0-4.3,2.4-8.1,5.9-9.8c1.4-0.7,2.9-1.1,4.6-1.1
	C97.4,65.3,102.1,70.2,102.1,76.2z"/>
<polygon fill="#BCBEC0" points="73.1,77.8 86.7,66.5 92,76.7 84.5,87.8 "/>
<path fill="#BCBEC0" d="M114.2,76.6c0,6,4.7,10.9,10.5,10.9c5.8,0,10.5-4.9,10.5-10.9c0-4.3-2.4-8.1-5.9-9.8
	c-1.4-0.7-2.9-1.1-4.6-1.1C118.9,65.7,114.2,70.6,114.2,76.6z"/>
<polygon fill="#BCBEC0" points="143.2,78.1 129.6,66.9 124.3,77.1 131.9,88.1 "/>
<ellipse fill="#BCBEC0" cx="66.5" cy="118.6" rx="33.3" ry="32.3"/>
<ellipse fill="#BCBEC0" cx="149.5" cy="118.6" rx="33.3" ry="32.3"/>
<circle fill="#BCBEC0" cx="107.2" cy="105.3" r="20.7"/>
<circle fill="#FFFFFF" cx="66.5" cy="120.3" r="22.2"/>
<circle fill="#FFFFFF" cx="149.5" cy="118.6" r="22.2"/>
<circle fill="#FFFFFF" cx="107.2" cy="109.9" r="7.5"/>
<path fill="#A7A9AC" d="M42.4,96.4c0,0,29-23.2,51.3,4.7c0,0,14.6-11.6,24.5,0c0,0,26.9-28.8,54.9-5.3l-24.8-19l-6.7,0l-12-9.9
	c0,0-11.1-5.1-14.9,6.8c0,0-7.6-4.7-12.9,0.4c0,0-2.8-12.6-15.2-7.6L73.9,77.2l-6.1-0.4L42.4,96.4z"/>
<polygon fill="#808285" points="101.9,74.1 93.6,101.1 91,98.1 "/>
<polygon fill="#808285" points="114.2,73.4 118.2,101.1 120.4,99 "/>
<path fill="#808285" d="M49.8,120.3c0,0-1.6,18.6,16.7,16.7C66.5,137,51.8,133,49.8,120.3z"/>
<path fill="#808285" d="M134.9,120.3c0,0-1.6,18.6,16.7,16.7C151.6,137,136.9,133,134.9,120.3z"/>
<polygon fill="#808285" points="73.9,77.2 59.1,88.4 55.9,89.4 "/>
<polygon fill="#808285" points="141.6,76.8 152.6,86.7 154.7,86.7 "/>
</svg>
