<?xml version="1.0" encoding="utf-8"?>
<!-- Generator: Adobe Illustrator 17.1.0, SVG Export Plug-In . SVG Version: 6.00 Build 0)  -->
<!DOCTYPE svg PUBLIC "-//W3C//DTD SVG 1.1//EN" "http://www.w3.org/Graphics/SVG/1.1/DTD/svg11.dtd">
<svg version="1.1" id="Layer_1" xmlns="http://www.w3.org/2000/svg" xmlns:xlink="http://www.w3.org/1999/xlink" x="0px" y="0px"
	 viewBox="0 0 216 216" enable-background="new 0 0 216 216" xml:space="preserve">
<circle cx="108" cy="108" r="98.3"/>
<path fill="#FFFFFF" d="M164.6,152.7H52.4c-3.6,0-6.6-2.1-6.6-4.8v-45.5c0-2.6,2.9-4.8,6.6-4.8h112.2c3.6,0,6.6,2.1,6.6,4.8v45.5
	C171.1,150.5,168.2,152.7,164.6,152.7z"/>
<path fill="#FFFFFF" stroke="#000000" stroke-miterlimit="10" d="M164.6,95.9H52.4c-3.6,0-6.6-0.9-6.6-2V75.2c0-1.1,2.9-2,6.6-2
	h112.2c3.6,0,6.6,0.9,6.6,2v18.7C171.1,95,168.2,95.9,164.6,95.9z"/>
<g>
	<circle cx="108" cy="116.4" r="22.5"/>
	<path fill="#FFFFFF" stroke="#000000" stroke-width="3" stroke-miterlimit="10" d="M108,143.2c-14.8,0-26.8-12-26.8-26.8
		c0-14.8,12-26.8,26.8-26.8c14.8,0,26.8,12,26.8,26.8C134.8,131.2,122.8,143.2,108,143.2z M108,98.2c-10,0-18.2,8.2-18.2,18.2
		c0,10,8.2,18.2,18.2,18.2c10,0,18.2-8.2,18.2-18.2C126.2,106.4,118,98.2,108,98.2z"/>
</g>
<circle fill="#FFFFFF" cx="108.5" cy="116.4" r="10.8"/>
<path fill="#FFFFFF" stroke="#000000" stroke-width="2" stroke-miterlimit="10" d="M66.5,70.3c0-3.8-3.1-6.9-6.9-6.9H51
	c-3.8,0-6.9,3.1-6.9,6.9l0,0c0,3.8,3.1,6.9,6.9,6.9h8.6C63.5,77.2,66.5,74.1,66.5,70.3L66.5,70.3z"/>
<path fill="#BCBEC0" d="M136.2,112.8l35,35.1c0,0,0.6,4.8-6.6,4.8h-36.9l-8.4-10.3c0,0,6.4-2.5,12.3-10.9
	C131.5,131.5,136.7,126.2,136.2,112.8z"/>
<g>
	<path fill="#BCBEC0" d="M125.3,102.5c0,0,0.6,0.5,1.5,1.7c0.4,0.6,1,1.3,1.5,2.2c0.5,0.9,1,1.9,1.5,3c0.2,0.6,0.4,1.2,0.6,1.8
		c0.2,0.6,0.3,1.3,0.5,2c0.1,0.7,0.2,1.4,0.3,2.2c0,0.8,0,1.5,0,2.3c-0.1,0.8-0.2,1.6-0.3,2.4c-0.2,0.8-0.4,1.6-0.6,2.4
		c-0.5,1.6-1.1,3.1-1.9,4.6c-0.7,1.5-1.7,2.9-2.8,4.1c-1.1,1.2-2.3,2.3-3.6,3.2c-1.3,1-2.6,1.7-3.9,2.2c-1.3,0.6-2.6,1-3.8,1.3
		c-0.6,0.2-1.2,0.3-1.8,0.3c-0.6,0.1-1.1,0.2-1.6,0.2c-1,0-1.9,0.1-2.6,0c-1.4-0.1-2.3-0.2-2.3-0.2s0.8,0,2.3,0
		c0.7,0,1.6-0.1,2.6-0.2c0.5,0,1-0.2,1.6-0.3c0.5-0.1,1.1-0.2,1.7-0.4c1.2-0.3,2.4-0.8,3.7-1.4c0.6-0.3,1.3-0.6,1.9-1
		c0.3-0.2,0.6-0.4,0.9-0.6c0.3-0.2,0.6-0.4,0.9-0.7c1.2-0.9,2.4-1.9,3.4-3.1c1.1-1.2,2-2.5,2.7-4c0.8-1.4,1.4-2.9,1.9-4.4
		c0.2-0.8,0.4-1.5,0.6-2.3c0.1-0.8,0.2-1.5,0.3-2.3c0-0.8,0-1.5,0.1-2.2c-0.1-0.7-0.1-1.4-0.2-2.1c-0.1-0.7-0.2-1.4-0.4-2
		c-0.2-0.6-0.3-1.2-0.5-1.8c-0.4-1.1-0.9-2.2-1.3-3.1c-0.5-0.9-0.9-1.6-1.3-2.2C125.8,103.2,125.3,102.5,125.3,102.5z"/>
</g>
<path d="M156.9,88.5h-14.2c-0.9,0-1.6-0.7-1.6-1.6v-6.9c0-0.9,0.7-1.6,1.6-1.6h14.2c0.9,0,1.6,0.7,1.6,1.6v6.9
	C158.5,87.7,157.8,88.5,156.9,88.5z"/>
</svg>
