<?xml version="1.0" encoding="utf-8"?>
<!-- Generator: Adobe Illustrator 17.1.0, SVG Export Plug-In . SVG Version: 6.00 Build 0)  -->
<!DOCTYPE svg PUBLIC "-//W3C//DTD SVG 1.1//EN" "http://www.w3.org/Graphics/SVG/1.1/DTD/svg11.dtd">
<svg version="1.1" id="Layer_1" xmlns="http://www.w3.org/2000/svg" xmlns:xlink="http://www.w3.org/1999/xlink" x="0px" y="0px"
	 viewBox="0 0 216 216" enable-background="new 0 0 216 216" xml:space="preserve">
<circle cx="108" cy="108" r="98.3"/>
<rect x="57" y="49.1" fill="#808285" width="105.1" height="122.5"/>
<path d="M156.9,88.5h-14.2c-0.9,0-1.6-0.7-1.6-1.6v-6.9c0-0.9,0.7-1.6,1.6-1.6h14.2c0.9,0,1.6,0.7,1.6,1.6v6.9
	C158.5,87.7,157.8,88.5,156.9,88.5z"/>
<path fill="#FFFFFF" d="M155.9,167.3H60.1c-1.7,0-3.2-1.4-3.2-3.2V56.2c0-1.7,1.4-3.2,3.2-3.2h95.8c1.7,0,3.2,1.4,3.2,3.2v107.9
	C159,165.9,157.6,167.3,155.9,167.3z"/>
<line fill="none" stroke="#808285" stroke-width="1.8692" stroke-miterlimit="10" x1="74.1" y1="73.3" x2="145.9" y2="73.3"/>
<line fill="none" stroke="#808285" stroke-width="1.9198" stroke-miterlimit="10" x1="70.1" y1="83.1" x2="145.9" y2="83.1"/>
<line fill="none" stroke="#808285" stroke-width="1.9198" stroke-miterlimit="10" x1="70.1" y1="92.1" x2="145.9" y2="92.1"/>
<line fill="none" stroke="#808285" stroke-width="1.9198" stroke-miterlimit="10" x1="70.1" y1="100.1" x2="145.9" y2="100.1"/>
<line fill="none" stroke="#808285" stroke-width="1.9198" stroke-miterlimit="10" x1="70.1" y1="109.1" x2="145.9" y2="109.1"/>
<line fill="none" stroke="#808285" stroke-width="1.9198" stroke-miterlimit="10" x1="70.1" y1="119.6" x2="145.9" y2="119.6"/>
<line fill="none" stroke="#808285" stroke-width="1.9198" stroke-miterlimit="10" x1="70.1" y1="128.7" x2="145.9" y2="128.7"/>
<line fill="none" stroke="#808285" stroke-width="1.9198" stroke-miterlimit="10" x1="70.1" y1="137.9" x2="145.9" y2="137.9"/>
<line fill="none" stroke="#808285" stroke-width="1.9198" stroke-miterlimit="10" x1="70.1" y1="147" x2="145.9" y2="147"/>
<circle fill="#414042" cx="59.4" cy="63.2" r="1.9"/>
<path fill="#E6E7E8" stroke="#58595B" stroke-width="0.25" stroke-miterlimit="10" d="M58.4,64.7h-5.2c-0.6,0-1-0.5-1-1v-1
	c0-0.6,0.5-1,1-1h5.2c0.6,0,1,0.5,1,1v1C59.4,64.3,59,64.7,58.4,64.7z"/>
<circle fill="#414042" cx="59.4" cy="75.9" r="1.9"/>
<path fill="#E6E7E8" stroke="#58595B" stroke-width="0.25" stroke-miterlimit="10" d="M58.4,77.4h-5.2c-0.6,0-1-0.5-1-1v-1
	c0-0.6,0.5-1,1-1h5.2c0.6,0,1,0.5,1,1v1C59.4,77,59,77.4,58.4,77.4z"/>
<circle fill="#414042" cx="59.6" cy="91.1" r="1.9"/>
<path fill="#E6E7E8" stroke="#58595B" stroke-width="0.25" stroke-miterlimit="10" d="M58.6,92.6h-5.2c-0.6,0-1-0.5-1-1v-1
	c0-0.6,0.5-1,1-1h5.2c0.6,0,1,0.5,1,1v1C59.6,92.2,59.2,92.6,58.6,92.6z"/>
<circle fill="#414042" cx="59.6" cy="103.9" r="1.9"/>
<path fill="#E6E7E8" stroke="#58595B" stroke-width="0.25" stroke-miterlimit="10" d="M58.6,105.4h-5.2c-0.6,0-1-0.5-1-1v-1
	c0-0.6,0.5-1,1-1h5.2c0.6,0,1,0.5,1,1v1C59.6,104.9,59.2,105.4,58.6,105.4z"/>
<circle fill="#414042" cx="59.6" cy="117.8" r="1.9"/>
<path fill="#E6E7E8" stroke="#58595B" stroke-width="0.25" stroke-miterlimit="10" d="M58.6,119.3h-5.2c-0.6,0-1-0.5-1-1v-1
	c0-0.6,0.5-1,1-1h5.2c0.6,0,1,0.5,1,1v1C59.6,118.8,59.2,119.3,58.6,119.3z"/>
<circle fill="#414042" cx="59.6" cy="130.5" r="1.9"/>
<path fill="#E6E7E8" stroke="#58595B" stroke-width="0.25" stroke-miterlimit="10" d="M58.6,132h-5.2c-0.6,0-1-0.5-1-1v-1
	c0-0.6,0.5-1,1-1h5.2c0.6,0,1,0.5,1,1v1C59.6,131.6,59.2,132,58.6,132z"/>
<circle fill="#414042" cx="59.6" cy="143" r="1.9"/>
<path fill="#E6E7E8" stroke="#58595B" stroke-width="0.25" stroke-miterlimit="10" d="M58.6,144.5h-5.2c-0.6,0-1-0.5-1-1v-1
	c0-0.6,0.5-1,1-1h5.2c0.6,0,1,0.5,1,1v1C59.6,144.1,59.2,144.5,58.6,144.5z"/>
<circle fill="#414042" cx="59.6" cy="155.7" r="1.9"/>
<path fill="#E6E7E8" stroke="#58595B" stroke-width="0.25" stroke-miterlimit="10" d="M58.6,157.2h-5.2c-0.6,0-1-0.5-1-1v-1
	c0-0.6,0.5-1,1-1h5.2c0.6,0,1,0.5,1,1v1C59.6,156.8,59.2,157.2,58.6,157.2z"/>
<line fill="none" stroke="#808285" stroke-miterlimit="10" x1="130.8" y1="61.7" x2="145.9" y2="61.7"/>
</svg>
