<?xml version="1.0" encoding="utf-8"?>
<!-- Generator: Adobe Illustrator 17.1.0, SVG Export Plug-In . SVG Version: 6.00 Build 0)  -->
<!DOCTYPE svg PUBLIC "-//W3C//DTD SVG 1.1//EN" "http://www.w3.org/Graphics/SVG/1.1/DTD/svg11.dtd">
<svg version="1.1" id="Layer_1" xmlns="http://www.w3.org/2000/svg" xmlns:xlink="http://www.w3.org/1999/xlink" x="0px" y="0px"
	 viewBox="0 0 792 612" enable-background="new 0 0 792 612" xml:space="preserve">
<circle fill="#3E441D" cx="396" cy="306" r="278.5"/>
<path fill="#FFFFFF" d="M556.4,432.6H238.5c-10.2,0-18.7-6-18.7-13.6V290.1c0-7.4,8.2-13.6,18.7-13.6h317.9c10.2,0,18.7,6,18.7,13.6
	V419C574.8,426.4,566.6,432.6,556.4,432.6z"/>
<path fill="#FFFFFF" stroke="#000000" stroke-miterlimit="10" d="M556.4,271.7H238.5c-10.2,0-18.7-2.6-18.7-5.7v-53
	c0-3.1,8.2-5.7,18.7-5.7h317.9c10.2,0,18.7,2.6,18.7,5.7v53C574.8,269.2,566.6,271.7,556.4,271.7z"/>
<g>
	<circle fill="#D1E0D7" cx="396" cy="329.8" r="63.7"/>
	<path fill="#FFFFFF" stroke="#000000" stroke-width="3" stroke-miterlimit="10" d="M396,405.7c-41.9,0-75.9-34-75.9-75.9
		s34-75.9,75.9-75.9s75.9,34,75.9,75.9S437.9,405.7,396,405.7z M396,278.2c-28.3,0-51.6,23.2-51.6,51.6c0,28.3,23.2,51.6,51.6,51.6
		c28.3,0,51.6-23.2,51.6-51.6S424.3,278.2,396,278.2z"/>
</g>
<circle fill="#FFFFFF" cx="397.4" cy="329.8" r="30.6"/>
<path fill="#FFFFFF" stroke="#000000" stroke-width="2" stroke-miterlimit="10" d="M278.4,199.2c0-10.8-8.8-19.6-19.5-19.6h-24.4
	c-10.8,0-19.6,8.8-19.6,19.6l0,0c0,10.8,8.8,19.6,19.6,19.6h24.4C269.9,218.7,278.4,209.9,278.4,199.2L278.4,199.2z"/>
<path fill="#E6E7E8" d="M475.9,319.6l99.2,99.4c0,0,1.7,13.6-18.7,13.6H451.8L428,403.5c0,0,18.1-7.1,34.9-30.9
	C462.6,372.6,477.3,357.6,475.9,319.6z"/>
<g>
	<path fill="#E6E7E8" d="M445,290.4c0,0,1.7,1.4,4.2,4.8c1.1,1.7,2.8,3.7,4.2,6.2s2.8,5.4,4.2,8.5c0.6,1.7,1.1,3.4,1.7,5.1
		c0.6,1.7,0.9,3.7,1.4,5.7c0.3,2,0.6,4,0.9,6.2c0,2.3,0,4.2,0,6.5c-0.3,2.3-0.6,4.5-0.9,6.8c-0.6,2.3-1.1,4.5-1.7,6.8
		c-1.4,4.5-3.1,8.8-5.4,13c-2,4.3-4.8,8.2-7.9,11.6c-3.1,3.4-6.5,6.5-10.2,9.1c-3.7,2.8-7.4,4.8-11.1,6.2c-3.7,1.7-7.4,2.8-10.8,3.7
		c-1.7,0.6-3.4,0.9-5.1,0.9c-1.7,0.3-3.1,0.6-4.5,0.6c-2.8,0-5.4,0.3-7.4,0c-4-0.3-6.5-0.6-6.5-0.6s2.3,0,6.5,0c2,0,4.5-0.3,7.4-0.6
		c1.4,0,2.8-0.6,4.5-0.9c1.4-0.3,3.1-0.6,4.8-1.1c3.4-0.9,6.8-2.3,10.5-4c1.7-0.9,3.7-1.7,5.4-2.8c0.9-0.6,1.7-1.1,2.5-1.7
		c0.9-0.6,1.7-1.1,2.6-2c3.4-2.5,6.8-5.4,9.6-8.8c3.1-3.4,5.7-7.1,7.6-11.3c2.3-4,4-8.2,5.4-12.5c0.6-2.3,1.1-4.2,1.7-6.5
		c0.3-2.3,0.6-4.2,0.9-6.5c0-2.3,0-4.2,0.3-6.2c-0.3-2-0.3-4-0.6-6c-0.3-2-0.6-4-1.1-5.7c-0.6-1.7-0.9-3.4-1.4-5.1
		c-1.1-3.1-2.5-6.2-3.7-8.8c-1.4-2.6-2.6-4.5-3.7-6.2C446.4,292.4,445,290.4,445,290.4z"/>
</g>
<path fill="#58595B" d="M534.5,250.8h-40.2c-2.5,0-4.5-2-4.5-4.5v-19.6c0-2.6,2-4.5,4.5-4.5h40.2c2.5,0,4.5,2,4.5,4.5v19.6
	C539.1,248.5,537.1,250.8,534.5,250.8z"/>
</svg>
